<svg width="56" height="56" viewBox="0 0 56 56" fill="none" xmlns="http://www.w3.org/2000/svg">
<g clip-path="url(#clip0_2001_10411)">
<path d="M28 56C43.464 56 56 43.464 56 28C56 12.536 43.464 0 28 0C12.536 0 0 12.536 0 28C0 43.464 12.536 56 28 56Z" fill="#F0F0F0"/>
<path d="M54.2584 37.7389C55.384 34.7056 56 31.4248 56 27.9998C56 24.5749 55.384 21.294 54.2584 18.2607H1.74158C0.616109 21.294 0 24.5749 0 27.9998C0 31.4248 0.616109 34.7056 1.74158 37.7389L28 40.1737L54.2584 37.7389Z" fill="#0052B4"/>
<path d="M28.0006 56.0002C40.0396 56.0002 50.3028 48.4017 54.259 37.7393H1.74219C5.69839 48.4017 15.9616 56.0002 28.0006 56.0002Z" fill="#D80027"/>
</g>
<defs>
<clipPath id="clip0_2001_10411">
<rect width="56" height="56" fill="white"/>
</clipPath>
</defs>
</svg>
